<?xml version="1.0" encoding="iso-8859-1"?>

<!-- Generator: Adobe Illustrator 18.0.0, SVG Export Plug-In . SVG Version: 6.00 Build 0)  -->

<!DOCTYPE svg PUBLIC "-//W3C//DTD SVG 1.1//EN" "http://www.w3.org/Graphics/SVG/1.1/DTD/svg11.dtd">

<svg version="1.1" id="Layer_1" xmlns="http://www.w3.org/2000/svg" xmlns:xlink="http://www.w3.org/1999/xlink" x="0px" y="0px"

	 viewBox="0 0 177.752 46.012" style="enable-background:new 0 0 177.752 46.012;" xml:space="preserve">

<g>

	<path style="fill:#000000;" d="M76.53,3.42h-2.705V1.849h7.317V3.42H78.45v7.304h-1.92V3.42z"/>

	<path style="fill:#000000;" d="M84.906,1.849h1.92v3.453h3.581V1.849h1.919v8.876h-1.919V6.886h-3.581v3.839h-1.92V1.849z"/>

	<path style="fill:#000000;" d="M103.144,6.899h-4.251v2.254h4.689l-0.232,1.572h-6.325V1.849h6.3V3.42h-4.432v1.894h4.251V6.899z"

		/>

	<path style="fill:#000000;" d="M10.121,43.832H7.142l3.013-22.08h3.972l2.88,22.08h-3.013l-0.563-4.966h-2.78L10.121,43.832z

		 M12.041,25.758l-1.059,10.229H13.1L12.041,25.758z"/>

	<path style="fill:#000000;" d="M22.268,43.832l-3.344-22.08h3.045l1.854,13.439l1.754-13.439h2.946l-3.211,22.08H22.268z"/>

	<path style="fill:#000000;" d="M39.562,21.752v2.88h-4.369v6.191h3.045v2.88h-3.045v7.249h4.634v2.88h-7.713v-22.08H39.562z"/>

	<path style="fill:#000000;" d="M45.744,24.632h-2.88v-2.88h8.971v2.88h-3.013v19.2h-3.078V24.632z"/>

	<path style="fill:#000000;" d="M57.666,24.632h-2.88v-2.88h8.971v2.88h-3.013v19.2h-3.078V24.632z"/>

	<path style="fill:#000000;" d="M77.132,21.752c2.648,0,3.443,0.232,4.535,1.324c0.96,0.96,1.357,2.218,1.357,4.237

		c0,2.781-0.463,3.939-1.986,4.9c1.788,0.695,2.384,1.953,2.384,5.131c0,2.648-0.298,3.873-1.159,4.9

		c-0.96,1.125-2.384,1.589-4.833,1.589h-3.079v-22.08H77.132z M77.86,30.922c1.788,0,2.152-0.563,2.152-3.344

		c0-2.35-0.431-2.946-2.152-2.946h-0.43v6.29H77.86z M77.728,40.952c2.152,0,2.615-0.662,2.615-3.575

		c0-2.913-0.463-3.575-2.615-3.575H77.43v7.15H77.728z"/>

	<path style="fill:#000000;" d="M90.404,21.752c2.483,0,3.608,0.397,4.502,1.555c0.794,1.027,1.159,2.516,1.159,4.601

		c0,2.748-0.298,3.741-1.556,5.363l2.152,10.56h-3.31l-1.788-9.5c-0.529,0.099-0.629,0.099-1.092,0.132v9.368h-3.079v-22.08H90.404z

		 M90.901,31.352c0.993,0,1.556-0.232,1.854-0.794c0.232-0.431,0.298-0.96,0.298-2.979c0-2.384-0.431-2.946-2.152-2.946h-0.43v6.72

		H90.901z"/>

	<path style="fill:#000000;" d="M108.92,38.204c0,2.648-0.099,3.178-0.695,4.138c-0.728,1.125-2.119,1.82-3.675,1.82

		c-1.556,0-2.946-0.695-3.675-1.82c-0.596-0.961-0.695-1.523-0.695-4.138V27.346c0-2.615,0.099-3.178,0.695-4.138

		c0.728-1.092,2.119-1.788,3.675-1.788c1.556,0,2.946,0.696,3.675,1.788c0.596,0.96,0.695,1.523,0.695,4.138V38.204z

		 M105.842,26.089c0-1.258-0.364-1.788-1.291-1.788c-0.894,0-1.291,0.529-1.291,1.788v13.407c0,1.258,0.364,1.788,1.291,1.788

		c0.894,0,1.291-0.53,1.291-1.788V26.089z"/>

	<path style="fill:#000000;" d="M115.228,24.632h-2.88v-2.88h8.971v2.88h-3.013v19.2h-3.078V24.632z"/>

	<path style="fill:#000000;" d="M127.874,33.702v10.13h-3.079v-22.08h3.079v9.07h2.516v-9.07h3.079v22.08h-3.079v-10.13H127.874z"/>

	<path style="fill:#000000;" d="M144.996,21.752v2.88h-4.369v6.191h3.045v2.88h-3.045v7.249h4.634v2.88h-7.713v-22.08H144.996z"/>

	<path style="fill:#000000;" d="M151.972,21.752c2.483,0,3.609,0.397,4.502,1.555c0.794,1.027,1.159,2.516,1.159,4.601

		c0,2.748-0.298,3.741-1.556,5.363l2.152,10.56h-3.31l-1.788-9.5c-0.529,0.099-0.629,0.099-1.092,0.132v9.368h-3.079v-22.08H151.972

		z M152.469,31.352c0.993,0,1.556-0.232,1.854-0.794c0.232-0.431,0.298-0.96,0.298-2.979c0-2.384-0.431-2.946-2.152-2.946h-0.43

		v6.72H152.469z"/>

	<path style="fill:#000000;" d="M164.553,37.31v0.96c0,2.284,0.397,3.013,1.589,3.013c0.927,0,1.391-0.762,1.391-2.185

		c0-1.456-0.364-2.317-1.887-4.336l-1.523-2.251c-1.887-2.847-2.516-4.37-2.516-6.323c0-2.913,1.754-4.767,4.535-4.767

		c2.086,0,3.609,1.192,4.039,3.211c0.166,0.828,0.166,0.927,0.166,2.748l-3.013,0.298c0-1.125-0.033-1.523-0.099-1.986

		c-0.099-0.894-0.596-1.39-1.291-1.39c-0.828,0-1.291,0.728-1.291,2.053c0,1.357,0.132,1.655,2.185,4.733l1.556,2.251

		c1.423,2.085,2.218,4.336,2.218,6.223c0,2.947-1.622,4.602-4.502,4.602c-1.655,0-2.814-0.53-3.675-1.688

		c-0.728-0.993-0.96-1.92-0.96-3.84c0-0.463,0-0.662,0.033-1.192L164.553,37.31z"/>

</g>

</svg>

